# xmcd
#
# Track frame offsets:
#	150
#	16066
#	33969
#	51832
#	67571
#	86005
#	102311
#	122796
#	140314
#	161095
#	185021
#	205916
#
# Disc length: 2965 seconds
#
# Revision: 2
# Processed by: cddbd v1.5.2PL0 Copyright (c) Steve Scherf et al.
# Submitted via: audiograbber 1.83.01
#
DISCID=9a0b930c
DTITLE=JonesTM - HC200708
DYEAR=2007
DGENRE=Top 40
TTITLE0=Randy Archer - Just As Crazy
TTITLE1=Kenny Rogers Feat. Don Henley - Calling Me
TTITLE2=Steve Hill and Best Friends - We'll Always Have Texas
TTITLE3=Gerald Levert - DJ Don't
TTITLE4=Rick James - Deeper Still
TTITLE5=Fantasia - When I See U
TTITLE6=Lloyd Feat. Lil Wayne - You
TTITLE7=Elisabeth Withers - Simple Things
TTITLE8=Bow Wow Feat. R. Kelly - Flirt [Clean]
TTITLE9=R. Kelly Feat. T.I. and T-Pain - I'm A Flirt [Remix]
TTITLE10=Michael Franks - Sambo Do Soho
TTITLE11=Rodney Lee - Sould Habitz
EXTD=
EXTT0=
EXTT1=
EXTT2=
EXTT3=
EXTT4=
EXTT5=
EXTT6=
EXTT7=
EXTT8=
EXTT9=
EXTT10=
EXTT11=
PLAYORDER=
